<svg width="16" height="17" viewBox="0 0 16 17" fill="none" xmlns="http://www.w3.org/2000/svg">
<g clip-path="url(#clip0_5344_560)">
<path fill-rule="evenodd" clip-rule="evenodd" d="M8 0.332031C3.5875 0.332031 0 3.91953 0 8.33203C0 12.7445 3.5875 16.332 8 16.332C12.4125 16.332 16 12.7445 16 8.33203C16 3.91953 12.4125 0.332031 8 0.332031Z" fill="white"/>
<path d="M3.625 9.06875V7.59063C3.625 7.44062 3.74688 7.31562 3.9 7.31562H6.99062V4.22812C6.99062 4.07812 7.1125 3.95312 7.26562 3.95312H8.74375C8.89375 3.95312 9.01562 4.075 9.01562 4.22812V7.31875H12.1031C12.2531 7.31875 12.3781 7.44062 12.3781 7.59375V9.07188C12.3781 9.22188 12.2562 9.34375 12.1031 9.34375H9.0125V12.4313C9.0125 12.5813 8.89063 12.7063 8.74063 12.7063H7.2625C7.1125 12.7063 6.9875 12.5844 6.9875 12.4313V9.34062H3.9C3.74688 9.34375 3.625 9.21875 3.625 9.06875Z" fill="url(#paint0_linear_5344_560)"/>
</g>
<defs>
<linearGradient id="paint0_linear_5344_560" x1="11.9448" y1="11.4958" x2="2.2068" y2="7.08228" gradientUnits="userSpaceOnUse">
<stop stop-color="#41067A"/>
<stop offset="0.859293" stop-color="#7A06D1"/>
</linearGradient>
<clipPath id="clip0_5344_560">
<rect width="16" height="16" fill="white" transform="translate(0 0.332031)"/>
</clipPath>
</defs>
</svg>
